<?xml version="1.0" encoding="UTF-8"?>
<!DOCTYPE svg PUBLIC "-//W3C//DTD SVG 1.1//EN" "http://www.w3.org/Graphics/SVG/1.1/DTD/svg11.dtd">
<!-- Creator: CorelDRAW X7 -->
<svg xmlns="http://www.w3.org/2000/svg" xml:space="preserve" width="478px" height="301px" version="1.1" style="shape-rendering:geometricPrecision; text-rendering:geometricPrecision; image-rendering:optimizeQuality; fill-rule:evenodd; clip-rule:evenodd"
viewBox="0 0 478 301"
 xmlns:xlink="http://www.w3.org/1999/xlink">
 <defs>
  <style type="text/css">
   <![CDATA[
    .fil0 {fill:black}
   ]]>
  </style>
 </defs>
 <g id="Слой_x0020_1">
  <metadata id="CorelCorpID_0Corel-Layer"/>
  <path class="fil0" d="M295 252c8,-1 6,0 6,10 0,9 1,10 -6,10l0 -20zm-284 42l-2 0c-1,-3 -1,-39 0,-43 5,0 6,0 6,5l0 33c0,4 0,5 -4,5zm328 -3c0,3 -2,5 -5,4 -3,-1 -2,-4 -2,-7l0 -32c0,-3 0,-5 3,-5 3,0 4,2 4,4l0 36zm-273 -38l0 40c0,8 12,8 16,4 1,-3 1,-4 1,-7 0,-5 0,-13 0,-18 -2,-1 -2,-1 -4,-1 -2,0 -4,0 -5,0 0,1 0,2 1,3 3,6 2,-5 2,18 0,4 -6,4 -6,-1l0 -36c0,-6 4,-5 6,-4 1,2 0,7 1,10 0,-1 1,-1 2,-2 3,-1 3,-2 3,-6 0,-6 -5,-7 -10,-7 -4,0 -7,3 -7,7zm88 46l6 0c1,-6 1,-12 2,-17l3 -18c1,1 1,3 1,4l3 22c0,3 1,6 1,9l6 0c0,-4 -6,-36 -7,-43 0,-2 -1,-5 -1,-7 -1,-3 -3,-3 -6,-2l-8 52zm289 -19c-7,2 -5,5 -5,12 0,2 -3,4 -5,2 -2,-1 -1,-5 -1,-7 0,-4 -1,-34 0,-35 1,-2 6,-2 6,2 0,4 0,7 0,11 7,-1 5,-6 5,-11 0,-5 -2,-8 -8,-8 -5,0 -9,2 -9,7l0 33c0,6 -1,11 4,13 3,1 10,2 12,-3 2,-3 2,-12 1,-16zm-183 -29c4,0 7,0 7,4 0,14 1,15 -7,15l0 -19zm131 -2l0 50 12 0c2,0 2,0 4,-2 0,0 1,-2 1,-3l-12 0 0 -19c1,-2 5,0 7,-2 0,-1 2,-3 2,-4l-8 0c-1,0 -1,-1 -1,-2 0,-5 0,-10 0,-15 2,-1 6,0 8,-1 1,0 3,-4 3,-5l-15 0c-1,1 -1,2 -1,3zm60 -2l0 4 8 1c0,2 0,36 0,42 0,2 -1,4 1,5l4 0c1,-8 0,-44 1,-47 2,-1 5,0 7,-1 2,-1 2,-3 3,-5l-22 0c-1,0 -1,0 -2,1zm-336 0l0 4 7 1c1,0 1,0 1,0 1,1 -1,44 1,47l5 0c0,-14 -1,-35 0,-47 3,-1 5,0 8,-1 1,-1 2,-3 3,-5l-23 0 -2 1zm252 41c-1,0 -3,1 -4,1 -4,2 -2,8 2,10 3,1 8,1 10,0 3,-2 3,-4 3,-8 0,-8 1,-39 0,-44 -2,-1 -1,-1 -5,-1 0,5 0,45 0,47 -1,2 -4,3 -5,1 -2,-1 -1,-4 -1,-6zm-170 11c4,0 8,0 12,0 2,0 4,0 5,-1 0,-1 1,-3 2,-4l-13 0c0,-3 0,-46 0,-47 -2,-1 -4,-1 -6,-1l0 53zm-156 0l5 0 0 -51c-1,-2 -3,-2 -5,-2l0 40c0,4 -1,11 0,13zm61 -1l1 1 5 0 0 -51c-2,-2 -3,-2 -6,-2l0 52zm107 -291c0,-3 2,-5 5,-5l5 0c3,0 6,2 6,5l0 10 0 10 0 87 -8 31 -8 -31 0 -87 0 -10 0 -10zm-30 179l-27 0 0 -7 0 -8 0 -8 0 -8 0 -7 0 -8 0 -8 0 -7 0 -8 0 -8 0 -7 0 -8 0 -8 0 -7 0 -8 0 -8 0 -8 0 -7 0 -8 0 -8 0 -7 0 -8 0 -8 0 -7 27 0c6,0 11,4 11,10l0 164c0,6 -5,10 -11,10zm120 -154l0 -23c0,-4 -4,-7 -8,-7 -5,0 -8,3 -8,7l0 23 16 0zm17 110l-25 -58 0 0 0 0 -17 39c-8,3 -12,11 -8,19l-5 9 -17 27 -5 -2 8 -31 29 -67c-4,-4 -7,-9 -7,-15 0,-10 8,-18 18,-20l0 -11 8 0 0 11c10,2 17,10 17,20 0,6 -2,11 -6,15l25 58 -15 6zm4 9l7 15 3 7c1,4 6,5 10,4 4,-2 6,-6 5,-10l-4 -7 -6 -15 -15 6zm-65 148c1,0 4,0 5,0l0 -24c6,0 9,0 11,-4 1,-3 1,-9 1,-13 0,-5 0,-8 -4,-11 -2,-1 -10,-1 -13,-1l0 53zm76 -53c-6,2 -5,9 -5,14 0,4 0,33 0,35 1,2 3,4 5,4 2,1 7,1 8,0 6,-2 5,-7 5,-13 0,-4 0,-34 0,-35 -1,-2 -3,-4 -5,-5 -2,0 -7,0 -8,0zm-328 53c3,0 8,0 11,0 3,0 6,-2 6,-4 1,-3 1,-41 0,-44 0,-3 -3,-4 -6,-5 -2,0 -9,0 -11,0l0 53zm287 -51c0,16 0,35 0,51l5 0c0,-7 0,-16 0,-23 7,0 6,1 6,9 0,4 0,9 0,14l6 0 0 -19c0,-4 -1,-4 -2,-6 1,-1 2,-3 2,-5l0 -16c0,-3 -2,-6 -5,-6 -2,-1 -10,-1 -12,-1l0 2z"/>
 </g>
</svg>
