<?xml version="1.0" encoding="UTF-8"?>
<!DOCTYPE svg PUBLIC "-//W3C//DTD SVG 1.0//EN" "http://www.w3.org/TR/2001/REC-SVG-20010904/DTD/svg10.dtd">
<!-- Creator: CorelDRAW X7 -->
<svg xmlns="http://www.w3.org/2000/svg" xml:space="preserve" width="40px" height="40px" version="1.0" style="shape-rendering:geometricPrecision; text-rendering:geometricPrecision; image-rendering:optimizeQuality; fill-rule:evenodd; clip-rule:evenodd"
viewBox="0 0 400 400"
 xmlns:xlink="http://www.w3.org/1999/xlink">
 <defs>
  <style type="text/css">
   <![CDATA[
    .fil0 {fill:#333333}
   ]]>
  </style>
 </defs>
 <g id="Слой_x0020_1">
  <metadata id="CorelCorpID_0Corel-Layer"/>
  <path class="fil0" d="M42 266c26,0 23,-19 81,2 83,29 67,-33 162,2 23,8 57,8 75,-5l0 -46c-17,-4 -34,15 -81,-2 -86,-30 -68,30 -160,-1 -39,-13 -44,-8 -79,3l2 47 0 0z"/>
  <path class="fil0" d="M40 351c16,-1 23,-8 42,-8 46,-1 53,33 121,8 71,-27 93,32 157,-2l-1 -45c-17,-7 -23,18 -81,-3 -80,-30 -76,32 -160,-1 -20,-8 -66,-12 -78,6l0 45z"/>
  <path class="fil0" d="M41 50l-1 48c23,0 31,-18 81,1 30,11 49,12 79,0 32,-12 46,-12 78,0 23,8 62,15 80,-3l2 -45c-20,-4 -33,16 -79,-1 -86,-32 -77,30 -160,-2 -35,-13 -49,-9 -80,2l0 0z"/>
  <path class="fil0" d="M40 138c0,76 -2,31 54,37 32,4 49,26 91,14 36,-11 47,-23 88,-8 26,10 62,17 87,0l-1 -46c-15,-6 -22,18 -77,-1 -93,-32 -71,31 -164,-3 -19,-6 -65,-12 -78,7l0 0z"/>
 </g>
</svg>
