<svg width="136" height="34" viewBox="0 0 136 34" fill="none" xmlns="http://www.w3.org/2000/svg">
<path fill-rule="evenodd" clip-rule="evenodd" d="M0.399999 1.99993L0.299999 6.79993C1.01735 6.79993 1.57906 6.62484 2.16717 6.44151C3.46467 6.03705 4.89065 5.59253 8.4 6.89993C11.4 7.99993 13.3 8.09993 16.3 6.89993C19.5 5.69993 20.9 5.69993 24.1 6.89993C26.4 7.69993 30.3 8.39993 32.1 6.59993L32.3 2.09993C31.5351 1.95424 30.8896 2.12694 30.1558 2.32327C28.8748 2.66599 27.3246 3.08075 24.4 1.99993C20.0806 0.392709 18.1324 1.15676 16.2116 1.91009C14.308 2.65666 12.4313 3.39271 8.3 1.79993C4.9 0.499934 3.5 0.899934 0.399999 1.99993ZM48.6 2.79993H45V22.1999H43.3V2.79993H39.7V1.19993H48.6V2.79993ZM58.7 22.1999H51.3V1.19993H58.7V2.79993H53.1V10.8999H57.9V12.4999H53.1V20.5999H58.7V22.1999ZM70.8 17.3999C70.8 19.1999 70.3 20.5999 69.3 21.3999C68.6 22.0999 67.6 22.3999 66.4 22.3999C65.1 22.3999 64 21.9999 63.2 21.1999C62.6 20.4999 62.2 19.5999 62 18.4999C61.8 17.2999 61.7 15.0999 61.7 11.6999C61.7 8.39993 61.8 6.09993 62 4.99993C62.2 3.79993 62.6 2.89993 63.2 2.19993C64 1.39993 65.1 0.999934 66.4 0.999934C67.7 0.999934 68.7 1.39993 69.4 2.09993C70.3 2.99993 70.8 4.29993 70.8 5.99993H69.1C69.1 4.79993 68.8 3.79993 68.2 3.29993C67.8 2.79993 67.2 2.59993 66.4 2.59993C65.6 2.59993 65 2.79993 64.5 3.29993C64.1 3.79993 63.8 4.59993 63.7 5.59993C63.6 6.59993 63.5 8.59993 63.5 11.6999C63.5 14.7999 63.6 16.7999 63.7 17.8999C63.8 18.8999 64.1 19.5999 64.5 20.0999C65 20.5999 65.6 20.8999 66.4 20.8999C67.2 20.8999 67.8 20.5999 68.2 20.1999C68.8 19.5999 69.1 18.6999 69.1 17.3999H70.8ZM82.9 22.1999H81.1V12.2999H75.9V22.1999H74.1V1.19993H75.9V10.6999H81.1V1.19993H82.9V22.1999ZM97.6 16.1999C97.6 17.3999 97.5 18.3999 97.3 19.0999C97.1 19.7999 96.7 20.3999 96.2 20.8999C95.3 21.7999 93.9 22.1999 92 22.1999H86.7V1.19993H92.1C94 1.19993 95.3 1.69993 96.2 2.49993C96.7 2.99993 97 3.59993 97.2 4.19993C97.4 4.79993 97.5 5.69993 97.5 6.79993C97.5 8.39993 97.1 9.69993 96.3 10.4999C96 10.7999 95.6 11.0999 95.2 11.1999C95.7 11.3999 96.1 11.6999 96.4 11.9999C97.2 12.7999 97.6 14.1999 97.6 16.1999ZM94.2 15.9999C94.2 14.7999 94 13.9999 93.7 13.4999C93.3 12.8999 92.6 12.6999 91.7 12.6999H90.1V19.1999H91.7C92.6 19.1999 93.3 18.9999 93.7 18.4999C94.1 17.9999 94.2 17.1999 94.2 15.9999ZM94.2 6.99993C94.2 5.99993 94 5.29993 93.6 4.89993C93.3 4.39993 92.6 4.19993 91.8 4.19993H90.1V9.89993H91.8C92.6 9.89993 93.2 9.69993 93.6 9.19993C94 8.79993 94.2 7.99993 94.2 6.99993ZM110 22.1999H106.9V20.9999C106.6 21.4999 106.3 21.7999 105.9 21.9999C105.4 22.2999 104.8 22.3999 104.3 22.3999C103.1 22.3999 102.1 21.9999 101.4 21.1999C100.8 20.5999 100.5 19.3999 100.5 17.8999V6.69993H103.7V17.7999C103.7 18.3999 103.8 18.8999 104.1 19.1999C104.4 19.4999 104.8 19.5999 105.2 19.5999C105.7 19.5999 106.1 19.4999 106.4 19.1999C106.7 18.8999 106.8 18.3999 106.8 17.7999V6.69993H110V22.1999ZM116.2 22.1999H113.1V7.09993H116.2V22.1999ZM116.4 4.69993H112.9V1.29993H116.4V4.69993ZM120.8 21.2999C119.8 20.4999 119.3 19.1999 119.3 17.4999V1.19993H122.4V17.2999C122.4 18.6999 123.1 19.3999 124.6 19.3999V22.1999C122.9 22.1999 121.7 21.8999 120.8 21.2999ZM135.7 22.1999H132.7V20.9999C132.5 21.3999 132.2 21.6999 131.6 21.9999C131.2 22.2999 130.6 22.3999 130 22.3999C128.9 22.3999 127.9 21.9999 127.3 21.1999C126.8 20.6999 126.5 19.8999 126.4 18.8999C126.2 17.8999 126.2 16.3999 126.2 14.3999C126.2 12.4999 126.2 10.9999 126.4 9.99993C126.5 8.99993 126.8 8.19993 127.3 7.69993C127.9 6.89993 128.9 6.39993 130 6.39993C130.6 6.39993 131.2 6.59993 131.6 6.89993C131.9 6.99993 132.2 7.29993 132.6 7.69993V1.19993H135.7V22.1999ZM132.6 17.7999V11.0999C132.6 10.4999 132.4 9.99993 132.1 9.69993C131.8 9.39993 131.4 9.19993 131 9.19993C130.5 9.19993 130.1 9.39993 129.8 9.79993C129.5 10.2999 129.3 11.7999 129.3 14.3999C129.3 17.0999 129.5 18.5999 129.8 19.0999C130.1 19.3999 130.5 19.5999 131 19.5999C131.4 19.5999 131.8 19.4999 132.1 19.1999C132.4 18.8999 132.6 18.3999 132.6 17.7999ZM51.3 32.8999H50.2V29.7999C50.2 29.3999 50.1 29.0999 49.9 28.9999C49.7 28.7999 49.5 28.6999 49.2 28.6999C48.9 28.6999 48.6 28.7999 48.4 28.9999C48.2 29.0999 48.1 29.3999 48.1 29.7999V32.8999H47V27.7999H48.1V28.2999C48.4 27.8999 48.9 27.6999 49.5 27.6999C50 27.6999 50.4 27.8999 50.7 28.1999C51.1 28.4999 51.3 28.9999 51.3 29.6999V32.8999ZM60.5 32.8999V29.7999C60.5 29.3999 60.4 29.0999 60.2 28.9999C60 28.7999 59.8 28.6999 59.4 28.6999C59.1 28.6999 58.9 28.7999 58.7 28.9999C58.5 29.0999 58.4 29.3999 58.4 29.7999V32.8999H57.3V27.7999H58.3V28.2999C58.7 27.8999 59.2 27.6999 59.7 27.6999C60.3 27.6999 60.7 27.8999 61 28.1999C61.4 28.4999 61.5 28.9999 61.5 29.6999V32.8999H60.5ZM71.65 30.9998L71.65 30.9999C71.625 31.1999 71.6 31.3999 71.6 31.5999C71.5 31.8999 71.3 32.1999 71.1 32.3999C70.7 32.7999 70.2 32.9999 69.5 32.9999C68.9 32.9999 68.4 32.7999 68 32.3999C67.7 32.1999 67.6 31.8999 67.5 31.5999C67.4 31.1999 67.3 30.7999 67.3 30.3999C67.3 29.8999 67.4 29.4999 67.5 29.1999C67.6 28.8999 67.7 28.5999 68 28.3999C68.4 27.8999 68.9 27.6999 69.5 27.6999C70.2 27.6999 70.7 27.8999 71.1 28.3999C71.3 28.5999 71.5 28.8999 71.6 29.1999C71.6 29.3309 71.619 29.4809 71.6405 29.6499C71.6682 29.8682 71.7 30.1182 71.7 30.3999C71.7 30.5999 71.675 30.7998 71.65 30.9998ZM70.3 31.7999C70.5 31.4999 70.6 31.0999 70.6 30.3999C70.6 29.6999 70.5 29.1999 70.3 28.9999C70.1 28.7999 69.8 28.6999 69.5 28.6999C69.2 28.6999 68.9 28.7999 68.7 28.9999C68.5 29.1999 68.4 29.6999 68.4 30.3999C68.4 31.0999 68.5 31.4999 68.7 31.7999C69 31.9999 69.2 32.0999 69.5 32.0999C69.8 32.0999 70.1 31.9999 70.3 31.7999ZM81.4 27.7999L79.4 32.8999H78.6L76.7 27.7999H77.8L79 31.3999L80.3 27.7999H81.4ZM90.5 32.8999H89.5V32.4999C89.3 32.6999 89.1 32.7999 88.9 32.8999C88.7 32.9999 88.4 32.9999 88.1 32.9999C87.5 32.9999 87 32.7999 86.7 32.4999C86.4 32.2999 86.3 31.8999 86.3 31.3999C86.3 30.9999 86.4 30.5999 86.7 30.3999C87 30.0999 87.5 29.9999 88.1 29.9999H89.4V29.5999C89.4 29.2999 89.4 28.9999 89.2 28.8999C89 28.6999 88.7 28.5999 88.3 28.5999C88.1348 28.5999 88 28.6302 87.8788 28.6575C87.7798 28.6797 87.6899 28.6999 87.6 28.6999L87.2 29.0999L86.5 28.4999C86.7 28.1999 87 27.9999 87.3 27.8999C87.5 27.7999 87.9 27.6999 88.3 27.6999C89.8 27.6999 90.5 28.2999 90.5 29.4999V32.8999ZM89.4 31.0999V30.6999H88.2C87.6 30.6999 87.3 30.8999 87.3 31.3999C87.3 31.8999 87.6 32.0999 88.3 32.0999C88.7 32.0999 89 31.9999 89.2 31.7999C89.4 31.6999 89.4 31.4999 89.4 31.0999ZM98.7 32.8999H98.1C97.6 32.8999 97.3 32.7999 97 32.4999C96.8 32.1999 96.7 31.8999 96.7 31.4999V28.5999H96.1V27.7999H96.7V26.2999H97.7V27.7999H98.7V28.5999H97.7V31.4999C97.7 31.8999 97.9 32.0999 98.3 32.0999H98.7V32.8999ZM105.5 32.8999H104.5V27.7999H105.5V32.8999ZM105.6 26.7999H104.5V25.6999H105.6V26.7999ZM115.6 31.5999C115.5 31.8999 115.4 32.1999 115.1 32.3999C114.7 32.7999 114.2 32.9999 113.6 32.9999C112.9 32.9999 112.4 32.7999 112 32.3999C111.8 32.1999 111.6 31.8999 111.5 31.5999C111.4 31.1999 111.4 30.7999 111.4 30.3999C111.4 29.8999 111.4 29.4999 111.5 29.1999C111.6 28.8999 111.8 28.5999 112 28.3999C112.4 27.8999 112.9 27.6999 113.6 27.6999C114.2 27.6999 114.7 27.8999 115.1 28.3999C115.4 28.5999 115.5 28.8999 115.6 29.1999C115.7 29.4999 115.7 29.8999 115.7 30.3999C115.7 30.7999 115.7 31.1999 115.6 31.5999ZM114.3 31.7999C114.6 31.4999 114.7 31.0999 114.7 30.3999C114.7 29.6999 114.6 29.1999 114.3 28.9999C114.1 28.7999 113.9 28.6999 113.6 28.6999C113.3 28.6999 113 28.7999 112.8 28.9999C112.6 29.1999 112.4 29.6999 112.4 30.3999C112.4 31.0999 112.6 31.4999 112.8 31.7999C113 31.9999 113.3 32.0999 113.6 32.0999C113.9 32.0999 114.1 31.9999 114.3 31.7999ZM124.8 32.8999V29.7999C124.8 29.3999 124.7 29.0999 124.5 28.9999C124.3 28.7999 124 28.6999 123.7 28.6999C123.4 28.6999 123.1 28.7999 122.9 28.9999C122.7 29.0999 122.6 29.3999 122.6 29.7999V32.8999H121.6V27.7999H122.6V28.2999C123 27.8999 123.4 27.6999 124 27.6999C124.5 27.6999 125 27.8999 125.3 28.1999C125.6 28.4999 125.8 28.9999 125.8 29.6999V32.8999H124.8ZM135.7 31.3999C135.7 31.8999 135.5 32.2999 135.1 32.5999C134.7 32.8999 134.2 32.9999 133.5 32.9999C132.6 32.9999 131.9 32.7999 131.4 32.2999L132 31.5999C132.4 31.8999 132.9 32.0999 133.5 32.0999C133.9 32.0999 134.2 32.0999 134.4 31.8999C134.6 31.7999 134.7 31.5999 134.7 31.3999C134.7 31.0999 134.5 30.8999 134 30.7999L133.2 30.6999C132.1 30.5999 131.6 30.1999 131.6 29.2999C131.6 28.7999 131.8 28.3999 132.2 28.1999C132.5 27.8999 133 27.6999 133.6 27.6999C134.4 27.6999 135.1 27.8999 135.5 28.2999L134.9 28.9999C134.5 28.6999 134.1 28.5999 133.6 28.5999C133.3 28.5999 133 28.6999 132.9 28.7999C132.7 28.8999 132.6 29.0999 132.6 29.2999C132.6 29.3999 132.7 29.5999 132.8 29.6999C132.856 29.7561 132.944 29.7807 133.045 29.8092C133.125 29.8315 133.212 29.8561 133.3 29.8999H134.1C135.2 29.9999 135.7 30.4999 135.7 31.3999ZM39.8 32.8999H40.8V27.7999H39.8V32.8999ZM39.7 26.7999H40.8V25.6999H39.7V26.7999ZM0.399999 23.5999C1.27682 23.5999 1.83726 23.3996 2.39297 23.2009C3.54846 22.7877 4.68354 22.3819 8.6 23.7999C12.5844 25.1921 14.2874 24.4871 16.0321 23.7649C17.9218 22.9826 19.8605 22.1801 24.8 23.9999C27 24.7999 30.5 24.7999 32.3 23.4999V18.8999C31.7099 18.7611 31.1199 18.8994 30.4002 19.068C29.0464 19.3852 27.2339 19.8099 24.1 18.6999C19.9054 17.2195 18.1947 17.9308 16.4443 18.6586C14.6477 19.4057 12.8093 20.1701 8.2 18.5999C4.75087 17.4502 3.96105 17.7084 1.40349 18.5443L1.40329 18.5444C1.06902 18.6537 0.704547 18.7728 0.299999 18.8999L0.399999 23.5999ZM2.02659 31.7302C1.48436 31.8958 0.959926 32.0559 0.299999 32.0999V27.5999C1.5 25.7999 6.1 26.1999 8.1 26.9999C12.3754 28.6796 14.3711 27.8981 16.355 27.1213C18.2689 26.372 20.1718 25.6269 24.1 27.0999C27.8177 28.446 29.3989 27.9021 30.5028 27.5224C31.1211 27.3098 31.5897 27.1486 32.2 27.3999L32.3 31.8999C29.0267 33.6389 26.852 32.9451 24.5585 32.2133C22.3678 31.5144 20.0687 30.7809 16.6 32.0999C12.2847 33.6634 10.3945 32.9193 8.48306 32.1669C7.33817 31.7162 6.18571 31.2625 4.5 31.2999C3.43591 31.2999 2.71683 31.5195 2.02659 31.7302ZM0.647265 15.2513C0.264182 15.0654 0.299999 14.0161 0.299999 10.7999C1.6 8.89993 6.2 9.49993 8.1 10.0999C12.7751 11.8091 14.5188 11.067 16.2911 10.3128C18.0443 9.56662 19.8254 8.80858 24.5 10.3999C27.9771 11.6233 29.5055 11.0639 30.5802 10.6706C31.1746 10.453 31.6302 10.2863 32.2 10.4999L32.3 15.0999C29.8 16.7999 26.2 16.0999 23.6 15.0999C20.3632 13.9157 18.9961 14.4143 16.7926 15.218C16.205 15.4323 15.5579 15.6683 14.8 15.8999C12.0817 16.6766 10.4106 16.029 8.70225 15.367C7.7711 15.0062 6.82889 14.641 5.7 14.4999C2.46983 14.1538 1.16942 15.5046 0.647265 15.2513Z" fill="#333333"/>
</svg>
